<svg width="69" height="69" viewBox="0 0 69 69" fill="none" xmlns="http://www.w3.org/2000/svg">
<path d="M68.3475 48.4925C68.3475 60.9318 60.9318 68.3475 48.4925 68.3475H44.4258C42.5463 68.3475 41.0085 66.8096 41.0085 64.9301V45.2118C41.0085 44.2892 41.7603 43.5032 42.683 43.5032L48.6976 43.4006C49.176 43.3665 49.5861 43.0247 49.6886 42.5463L50.8847 36.0191C50.9872 35.404 50.5088 34.823 49.8595 34.823L42.5805 34.9256C41.6236 34.9256 40.8718 34.1737 40.8376 33.251L40.7009 24.8785C40.7009 24.3317 41.1452 23.8533 41.7261 23.8533L49.9278 23.7166C50.5088 23.7166 50.953 23.2723 50.953 22.6914L50.8163 14.4896C50.8163 13.9087 50.3721 13.4644 49.7911 13.4644L40.5642 13.6012C34.8914 13.7037 30.3804 18.3513 30.483 24.0241L30.6538 33.4219C30.688 34.3788 29.9362 35.1306 28.9793 35.1648L24.8785 35.2331C24.2975 35.2331 23.8533 35.6774 23.8533 36.2583L23.9558 42.7513C23.9558 43.3323 24.4 43.7765 24.981 43.7765L29.0818 43.7082C30.0387 43.7082 30.7905 44.46 30.8247 45.3827L31.1323 64.8617C31.1664 66.7755 29.6286 68.3475 27.7149 68.3475H19.8549C7.4157 68.3475 0 60.9318 0 48.4583V19.8549C0 7.4157 7.4157 0 19.8549 0H48.4925C60.9318 0 68.3475 7.4157 68.3475 19.8549V48.4925Z" fill="#3E3E3E"/>
</svg>
