<svg width="70" height="69" viewBox="0 0 70 69" fill="none" xmlns="http://www.w3.org/2000/svg">
<path d="M49.3016 0H20.6497C8.20431 0 0.784912 7.4194 0.784912 19.8648V48.4825C0.784912 60.9621 8.20431 68.3815 20.6497 68.3815H49.2674C61.7129 68.3815 69.1323 60.9621 69.1323 48.5167V19.8648C69.1664 7.4194 61.7471 0 49.3016 0ZM34.9757 47.4568C27.6589 47.4568 21.7097 41.5076 21.7097 34.1908C21.7097 26.8739 27.6589 20.9247 34.9757 20.9247C42.2925 20.9247 48.2417 26.8739 48.2417 34.1908C48.2417 41.5076 42.2925 47.4568 34.9757 47.4568ZM55.2166 16.6851C55.0457 17.0954 54.8063 17.4715 54.4986 17.8134C54.1567 18.1211 53.7806 18.3604 53.3703 18.5314C52.96 18.7023 52.5155 18.8049 52.0711 18.8049C51.1479 18.8049 50.2931 18.463 49.6435 17.8134C49.3358 17.4715 49.0965 17.0954 48.9255 16.6851C48.7546 16.2748 48.652 15.8303 48.652 15.3858C48.652 14.9414 48.7546 14.4969 48.9255 14.0866C49.0965 13.6421 49.3358 13.3002 49.6435 12.9583C50.4299 12.1719 51.6266 11.7958 52.7207 12.0351C52.96 12.0693 53.1652 12.1377 53.3703 12.2403C53.5755 12.3087 53.7806 12.4112 53.9857 12.548C54.1567 12.6506 54.3276 12.8215 54.4986 12.9583C54.8063 13.3002 55.0457 13.6421 55.2166 14.0866C55.3876 14.4969 55.4901 14.9414 55.4901 15.3858C55.4901 15.8303 55.3876 16.2748 55.2166 16.6851Z" fill="#3E3E3E"/>
</svg>
